name analog
datacolumns 19
datarows 79
range 0.543 0.582
endheader
time	ground_force_vx	ground_force_vy	ground_force_vz	ground_force_px	ground_force_py	ground_force_pz	l_ground_force_vx	l_ground_force_vy	l_ground_force_vz	l_ground_force_px	l_ground_force_py	l_ground_force_pz	ground_torque_x	ground_torque_y	ground_torque_z	l_ground_torque_x	l_ground_torque_y	l_ground_torque_z
0.543	-0.0	-0.0	-0.0	-7.658356189727783	7.489875793457031	-718.2359619140625	-0.0	-0.0	-0.0	-0.0	-0.0	-0.0	-0.0	-0.0	-0.0	-0.0	-0.0	-0.0
0.5435	-0.0	-0.0	-0.0	-7.85052490234375	7.13043212890625	-719.9244384765625	-0.0	-0.0	-0.0	-0.0	-0.0	-0.0	-0.0	-0.0	-0.0	-0.0	-0.0	-0.0
0.544	-0.0	-0.0	-0.0	-7.26238489151001	6.473462104797363	-720.487060546875	-0.0	-0.0	-0.0	-0.0	-0.0	-0.0	-0.0	-0.0	-0.0	-0.0	-0.0	-0.0
0.5445	-0.0	-0.0	-0.0	-7.348193168640137	6.972060203552246	-721.0494384765625	-0.0	-0.0	-0.0	-0.0	-0.0	-0.0	-0.0	-0.0	-0.0	-0.0	-0.0	-0.0
0.545	-0.0	-0.0	-0.0	-7.75774621963501	6.879440784454346	-722.8152465820312	-0.0	-0.0	-0.0	-0.0	-0.0	-0.0	-0.0	-0.0	-0.0	-0.0	-0.0	-0.0
0.5455	-0.0	-0.0	-0.0	-8.349350929260254	7.13043212890625	-723.1035766601562	-0.0	-0.0	-0.0	-0.0	-0.0	-0.0	-0.0	-0.0	-0.0	-0.0	-0.0	-0.0
0.546	-0.0	-0.0	-0.0	-8.458739280700684	8.337862014770508	-724.580810546875	-0.0	-0.0	-0.0	-0.0	-0.0	-0.0	-0.0	-0.0	-0.0	-0.0	-0.0	-0.0
0.5465	-0.0	-0.0	-0.0	-8.438491821289062	8.592992782592773	-722.2366943359375	-0.0	-0.0	-0.0	-0.0	-0.0	-0.0	-0.0	-0.0	-0.0	-0.0	-0.0	-0.0
0.547	-0.0	-0.0	-0.0	-7.676383972167969	9.646474838256836	-723.3763427734375	-0.0	-0.0	-0.0	-0.0	-0.0	-0.0	-0.0	-0.0	-0.0	-0.0	-0.0	-0.0
0.5475	-0.0	-0.0	-0.0	-6.658683300018311	10.805286407470703	-722.9947509765625	-0.0	-0.0	-0.0	-0.0	-0.0	-0.0	-0.0	-0.0	-0.0	-0.0	-0.0	-0.0
0.548	-0.0	-0.0	-0.0	-6.2447357177734375	11.639497756958008	-721.7363891601562	-0.0	-0.0	-0.0	-0.0	-0.0	-0.0	-0.0	-0.0	-0.0	-0.0	-0.0	-0.0
0.5485	-0.0	-0.0	-0.0	-6.1029582023620605	12.877714157104492	-722.606201171875	-0.0	-0.0	-0.0	-0.0	-0.0	-0.0	-0.0	-0.0	-0.0	-0.0	-0.0	-0.0
0.549	-0.0	-0.0	-0.0	-6.1872172355651855	13.511171340942385	-721.8997802734375	-0.0	-0.0	-0.0	-0.0	-0.0	-0.0	-0.0	-0.0	-0.0	-0.0	-0.0	-0.0
0.5495	-0.0	-0.0	-0.0	-6.507182598114014	14.276618003845217	-723.3125	-0.0	-0.0	-0.0	-0.0	-0.0	-0.0	-0.0	-0.0	-0.0	-0.0	-0.0	-0.0
0.55	-0.0	-0.0	-0.0	-6.921677589416504	14.842782020568848	-725.5560913085938	-0.0	-0.0	-0.0	-0.0	-0.0	-0.0	-0.0	-0.0	-0.0	-0.0	-0.0	-0.0
0.5505	-0.0	-0.0	-0.0	-7.787125587463379	15.324949264526367	-725.5369873046875	-0.0	-0.0	-0.0	-0.0	-0.0	-0.0	-0.0	-0.0	-0.0	-0.0	-0.0	-0.0
0.551	-0.0	-0.0	-0.0	-7.924164772033691	15.619050979614258	-723.9347534179688	-0.0	-0.0	-0.0	-0.0	-0.0	-0.0	-0.0	-0.0	-0.0	-0.0	-0.0	-0.0
0.5515	-0.0	-0.0	-0.0	-8.422633171081543	16.58795928955078	-723.7501220703125	-0.0	-0.0	-0.0	-0.0	-0.0	-0.0	-0.0	-0.0	-0.0	-0.0	-0.0	-0.0
0.552	-0.0	-0.0	-0.0	-8.118156433105469	17.08561897277832	-721.315673828125	-0.0	-0.0	-0.0	-0.0	-0.0	-0.0	-0.0	-0.0	-0.0	-0.0	-0.0	-0.0
0.5525	-0.0	-0.0	-0.0	-7.813601493835449	17.715410232543945	-715.6278686523438	-0.0	-0.0	-0.0	-0.0	-0.0	-0.0	-0.0	-0.0	-0.0	-0.0	-0.0	-0.0
0.553	-0.0	-0.0	-0.0	-8.105511665344238	17.795480728149414	-712.8634033203125	-0.0	-0.0	-0.0	-0.0	-0.0	-0.0	-0.0	-0.0	-0.0	-0.0	-0.0	-0.0
0.5535	-0.0	-0.0	-0.0	-7.970206260681152	17.58913230895996	-708.0051879882812	-0.0	-0.0	-0.0	-0.0	-0.0	-0.0	-0.0	-0.0	-0.0	-0.0	-0.0	-0.0
0.554	-0.0	-0.0	-0.0	-7.835367202758789	17.395572662353516	-705.9467163085938	-0.0	-0.0	-0.0	-0.0	-0.0	-0.0	-0.0	-0.0	-0.0	-0.0	-0.0	-0.0
0.5545	-0.0	-0.0	-0.0	-7.195859909057617	17.34340476989746	-701.7957153320312	-0.0	-0.0	-0.0	-0.0	-0.0	-0.0	-0.0	-0.0	-0.0	-0.0	-0.0	-0.0
0.555	-0.0	-0.0	-0.0	-7.02556848526001	16.867687225341797	-699.2684326171875	-0.0	-0.0	-0.0	-0.0	-0.0	-0.0	-0.0	-0.0	-0.0	-0.0	-0.0	-0.0
0.5555	-0.0	-0.0	-0.0	-6.899112224578857	16.459247589111328	-699.3268432617188	-0.0	-0.0	-0.0	-0.0	-0.0	-0.0	-0.0	-0.0	-0.0	-0.0	-0.0	-0.0
0.556	-0.0	-0.0	-0.0	-6.259609222412109	16.27372932434082	-699.4728393554688	-0.0	-0.0	-0.0	-0.0	-0.0	-0.0	-0.0	-0.0	-0.0	-0.0	-0.0	-0.0
0.5565	-0.0	-0.0	-0.0	-5.248597621917725	16.206924438476562	-703.3860473632812	-0.0	-0.0	-0.0	-0.0	-0.0	-0.0	-0.0	-0.0	-0.0	-0.0	-0.0	-0.0
0.557	-0.0	-0.0	-0.0	-5.34562873840332	16.45192527770996	-706.301513671875	-0.0	-0.0	-0.0	-0.0	-0.0	-0.0	-0.0	-0.0	-0.0	-0.0	-0.0	-0.0
0.5575	-0.0	-0.0	-0.0	-4.869306564331055	17.440250396728516	-711.304443359375	-0.0	-0.0	-0.0	-0.0	-0.0	-0.0	-0.0	-0.0	-0.0	-0.0	-0.0	-0.0
0.558	-0.0	-0.0	-0.0	-5.158119201660156	18.1307315826416	-715.0677490234375	-0.0	-0.0	-0.0	-0.0	-0.0	-0.0	-0.0	-0.0	-0.0	-0.0	-0.0	-0.0
0.5585	-0.0	-0.0	-0.0	-5.821468830108643	19.62322235107422	-717.8344116210938	-0.0	-0.0	-0.0	-0.0	-0.0	-0.0	-0.0	-0.0	-0.0	-0.0	-0.0	-0.0
0.559	-0.0	-0.0	-0.0	-5.761312007904053	20.752927780151367	-719.871337890625	-0.0	-0.0	-0.0	-0.0	-0.0	-0.0	-0.0	-0.0	-0.0	-0.0	-0.0	-0.0
0.5595	-0.0	-0.0	-0.0	-5.718035697937012	22.489669799804688	-722.8451538085938	-0.0	-0.0	-0.0	-0.0	-0.0	-0.0	-0.0	-0.0	-0.0	-0.0	-0.0	-0.0
0.56	-0.0	-0.0	-0.0	-6.01453971862793	23.173904418945312	-725.579833984375	-0.0	-0.0	-0.0	-0.0	-0.0	-0.0	-0.0	-0.0	-0.0	-0.0	-0.0	-0.0
0.5605	-0.0	-0.0	-0.0	-6.023530006408691	24.41278648376465	-726.8443603515625	-0.0	-0.0	-0.0	-0.0	-0.0	-0.0	-0.0	-0.0	-0.0	-0.0	-0.0	-0.0
0.561	-0.0	-0.0	-0.0	-6.526577472686768	25.482223510742188	-728.257080078125	-0.0	-0.0	-0.0	-0.0	-0.0	-0.0	-0.0	-0.0	-0.0	-0.0	-0.0	-0.0
0.5615	-0.0	-0.0	-0.0	-7.150973320007324	25.84781646728516	-729.2799072265625	-0.0	-0.0	-0.0	-0.0	-0.0	-0.0	-0.0	-0.0	-0.0	-0.0	-0.0	-0.0
0.562	-0.0	-0.0	-0.0	-7.953790187835693	26.84229278564453	-729.01904296875	-0.0	-0.0	-0.0	-0.0	-0.0	-0.0	-0.0	-0.0	-0.0	-0.0	-0.0	-0.0
0.5625	-0.0	-0.0	-0.0	-8.564208984375	27.36303329467773	-728.7971801757812	-0.0	-0.0	-0.0	-0.0	-0.0	-0.0	-0.0	-0.0	-0.0	-0.0	-0.0	-0.0
0.5630000000000001	-0.0	-0.0	-0.0	-8.526566505432129	27.479990005493164	-729.724853515625	-0.0	-0.0	-0.0	-0.0	-0.0	-0.0	-0.0	-0.0	-0.0	-0.0	-0.0	-0.0
0.5635	-0.0	-0.0	-0.0	-8.080475807189941	28.07607650756836	-730.430908203125	-0.0	-0.0	-0.0	-0.0	-0.0	-0.0	-0.0	-0.0	-0.0	-0.0	-0.0	-0.0
0.5640000000000001	-0.0	-0.0	-0.0	-7.88824462890625	28.02463150024414	-731.08251953125	-0.0	-0.0	-0.0	-0.0	-0.0	-0.0	-0.0	-0.0	-0.0	-0.0	-0.0	-0.0
0.5645	-0.0	-0.0	-0.0	-6.663349628448486	28.257747650146484	-733.255859375	-0.0	-0.0	-0.0	-0.0	-0.0	-0.0	-0.0	-0.0	-0.0	-0.0	-0.0	-0.0
0.5650000000000001	-0.0	-0.0	-0.0	-4.982146739959717	28.840499877929688	-735.4286499023438	-0.0	-0.0	-0.0	-0.0	-0.0	-0.0	-0.0	-0.0	-0.0	-0.0	-0.0	-0.0
0.5655	-0.0	-0.0	-0.0	-4.409138202667236	28.891801834106445	-735.224609375	-0.0	-0.0	-0.0	-0.0	-0.0	-0.0	-0.0	-0.0	-0.0	-0.0	-0.0	-0.0
0.5660000000000001	-0.0	-0.0	-0.0	-3.681955337524414	29.159149169921875	-735.5239868164062	-0.0	-0.0	-0.0	-0.0	-0.0	-0.0	-0.0	-0.0	-0.0	-0.0	-0.0	-0.0
0.5665	-0.0	-0.0	-0.0	-3.595306158065796	28.95394897460937	-735.1077880859375	-0.0	-0.0	-0.0	-0.0	-0.0	-0.0	-0.0	-0.0	-0.0	-0.0	-0.0	-0.0
0.5670000000000001	-0.0	-0.0	-0.0	-3.5796127319335938	29.145641326904297	-734.8172607421875	-0.0	-0.0	-0.0	-0.0	-0.0	-0.0	-0.0	-0.0	-0.0	-0.0	-0.0	-0.0
0.5675	-0.0	-0.0	-0.0	-3.467888832092285	28.711299896240234	-732.6005859375	-0.0	-0.0	-0.0	-0.0	-0.0	-0.0	-0.0	-0.0	-0.0	-0.0	-0.0	-0.0
0.5680000000000001	-0.0	-0.0	-0.0	-4.227439880371094	27.98694610595703	-732.096435546875	-0.0	-0.0	-0.0	-0.0	-0.0	-0.0	-0.0	-0.0	-0.0	-0.0	-0.0	-0.0
0.5685	-0.0	-0.0	-0.0	-4.754473686218262	28.062929153442383	-730.9319458007812	-0.0	-0.0	-0.0	-0.0	-0.0	-0.0	-0.0	-0.0	-0.0	-0.0	-0.0	-0.0
0.5690000000000001	-0.0	-0.0	-0.0	-5.441841125488281	27.57931137084961	-726.9381103515625	-0.0	-0.0	-0.0	-0.0	-0.0	-0.0	-0.0	-0.0	-0.0	-0.0	-0.0	-0.0
0.5695	-0.0	-0.0	-0.0	-6.46124792098999	26.9554386138916	-726.3880004882812	-0.0	-0.0	-0.0	-0.0	-0.0	-0.0	-0.0	-0.0	-0.0	-0.0	-0.0	-0.0
0.5700000000000001	-0.0	-0.0	-0.0	-8.385787963867188	26.10226821899414	-722.9564819335938	-0.0	-0.0	-0.0	-0.0	-0.0	-0.0	-0.0	-0.0	-0.0	-0.0	-0.0	-0.0
0.5705	-0.0	-0.0	-0.0	-9.074198722839355	26.268217086791992	-719.3765258789062	-0.0	-0.0	-0.0	-0.0	-0.0	-0.0	-0.0	-0.0	-0.0	-0.0	-0.0	-0.0
0.5710000000000001	-0.0	-0.0	-0.0	-10.310224533081056	25.78430557250977	-720.6393432617188	-0.0	-0.0	-0.0	-0.0	-0.0	-0.0	-0.0	-0.0	-0.0	-0.0	-0.0	-0.0
0.5715	-0.0	-0.0	-0.0	-10.0552978515625	25.949678421020508	-718.9735107421875	-0.0	-0.0	-0.0	-0.0	-0.0	-0.0	-0.0	-0.0	-0.0	-0.0	-0.0	-0.0
0.5720000000000001	-0.0	-0.0	-0.0	-10.246542930603027	26.35701560974121	-717.7117309570312	-0.0	-0.0	-0.0	-0.0	-0.0	-0.0	-0.0	-0.0	-0.0	-0.0	-0.0	-0.0
0.5725	-0.0	-0.0	-0.0	-9.864068031311035	27.426958084106445	-716.9053344726562	-0.0	-0.0	-0.0	-0.0	-0.0	-0.0	-0.0	-0.0	-0.0	-0.0	-0.0	-0.0
0.5730000000000001	-0.0	-0.0	-0.0	-9.558060646057127	28.712514877319336	-717.1041259765625	-0.0	-0.0	-0.0	-0.0	-0.0	-0.0	-0.0	-0.0	-0.0	-0.0	-0.0	-0.0
0.5735	-0.0	-0.0	-0.0	-9.583900451660156	30.25254821777344	-715.9943237304688	-0.0	-0.0	-0.0	-0.0	-0.0	-0.0	-0.0	-0.0	-0.0	-0.0	-0.0	-0.0
0.5740000000000001	-0.0	-0.0	-0.0	-9.57150650024414	31.2960262298584	-714.635009765625	-0.0	-0.0	-0.0	-0.0	-0.0	-0.0	-0.0	-0.0	-0.0	-0.0	-0.0	-0.0
0.5745	-0.0	-0.0	-0.0	-9.622397422790527	33.15509033203125	-714.4830322265625	-0.0	-0.0	-0.0	-0.0	-0.0	-0.0	-0.0	-0.0	-0.0	-0.0	-0.0	-0.0
0.5750000000000001	-0.0	-0.0	-0.0	-9.085516929626465	34.213829040527344	-714.3859252929688	-0.0	-0.0	-0.0	-0.0	-0.0	-0.0	-0.0	-0.0	-0.0	-0.0	-0.0	-0.0
0.5755	-0.0	-0.0	-0.0	-8.728545188903809	34.83591842651367	-712.3713989257812	-0.0	-0.0	-0.0	-0.0	-0.0	-0.0	-0.0	-0.0	-0.0	-0.0	-0.0	-0.0
0.5760000000000001	-0.0	-0.0	-0.0	-9.073062896728516	35.9822998046875	-710.6546020507812	-0.0	-0.0	-0.0	-0.0	-0.0	-0.0	-0.0	-0.0	-0.0	-0.0	-0.0	-0.0
0.5765	-0.0	-0.0	-0.0	-8.8463134765625	36.31462097167969	-710.3021240234375	-0.0	-0.0	-0.0	-0.0	-0.0	-0.0	-0.0	-0.0	-0.0	-0.0	-0.0	-0.0
0.577	-0.0	-0.0	-0.0	-9.147473335266112	36.8348388671875	-708.3633422851562	6.48953914642334	-1.804480791091919	-22.249027252197266	-0.0	-0.0	-0.0	-0.0	-0.0	-0.0	6867.63232421875	1759.730224609375	1487.3590087890625
0.5775	-0.0	-0.0	-0.0	-8.9358491897583	36.97720336914063	-708.985107421875	5.741792678833008	-2.9389169216156006	-27.083267211914062	-0.0	-0.0	-0.0	-0.0	-0.0	-0.0	8066.279296875	2360.404052734375	1241.06494140625
0.578	-0.0	-0.0	-0.0	-8.944741249084473	36.87317657470703	-707.6318969726562	4.955677032470703	-3.418495416641236	-32.46357727050781	-0.0	-0.0	-0.0	-0.0	-0.0	-0.0	9501.0634765625	2618.368408203125	994.3739013671876
0.5785	-0.0	-0.0	-0.0	-8.757780075073242	36.37697982788086	-706.0067138671875	4.677542686462402	-3.8600106239318848	-37.24748992919922	-0.0	-0.0	-0.0	-0.0	-0.0	-0.0	10669.0576171875	3093.41796875	672.5164794921875
0.579	-0.0	-0.0	-0.0	-9.176966667175291	35.94296646118164	-706.1600952148438	4.449898719787598	-4.062797546386719	-42.851200103759766	-0.0	-0.0	-0.0	-0.0	-0.0	-0.0	12127.5322265625	3590.0458984375	519.2474365234375
0.5795	-0.0	-0.0	-0.0	-8.781415939331055	35.8420524597168	-704.9471435546875	4.334907531738281	-4.327762603759766	-47.833770751953125	-0.0	-0.0	-0.0	-0.0	-0.0	-0.0	13655.107421875	4007.869140625	515.125
0.58	-0.0	-0.0	-0.0	-8.637715339660645	35.43097305297852	-701.5855102539062	4.589272975921631	-4.845901012420654	-53.862579345703125	-0.0	-0.0	-0.0	-0.0	-0.0	-0.0	15404.4052734375	4521.78759765625	378.7742309570313
0.5805	-0.0	-0.0	-0.0	-8.474998474121094	35.80742263793945	-699.2052001953125	4.042237281799316	-5.134398937225342	-58.901668548583984	-0.0	-0.0	-0.0	-0.0	-0.0	-0.0	16970.900390625	4801.1328125	205.2754821777344
0.581	-0.0	-0.0	-0.0	-8.145614624023438	36.031524658203125	-693.2470092773438	4.269833564758301	-4.619391918182373	-66.08187866210938	-0.0	-0.0	-0.0	-0.0	-0.0	-0.0	19273.015625	5212.89306640625	120.51953125
0.5815	-0.0	-0.0	-0.0	-7.548831462860107	36.54346466064453	-686.8900146484375	5.422996520996094	-5.725717544555664	-75.44830322265625	-0.0	-0.0	-0.0	-0.0	-0.0	-0.0	21116.9765625	5412.91845703125	332.5987854003906
0.582	-0.0	-0.0	-0.0	-7.409517765045166	36.96149063110352	-679.9161376953125	5.3226470947265625	-5.602658748626709	-83.08313751220703	-0.0	-0.0	-0.0	-0.0	-0.0	-0.0	23652.873046875	5624.29296875	311.8973999023437
